<mxfile host="app.diagrams.net" modified="2025-08-26T00:00:00.000Z" agent="github-copilot" version="24.7.0" type="device">
  <diagram id="wbs-plantgraft-api" name="WBS - PlantGraft API">
    <mxGraphModel dx="1422" dy="794" grid="1" gridSize="10" guides="1" tooltips="1" connect="1" arrows="1" fold="1" page="1" pageScale="1" pageWidth="2970" pageHeight="2100" math="0" shadow="0">
      <root>
        <mxCell id="0" />
        <mxCell id="1" parent="0" />
        
        <!-- Root -->
        <mxCell id="wbs_root" value="PlantGraft API" style="rounded=1;whiteSpace=wrap;html=1;fontStyle=1;fillColor=#dae8fc;strokeColor=#6c8ebf;" vertex="1" parent="1">
          <mxGeometry x="100" y="60" width="220" height="60" as="geometry" />
        </mxCell>

        <!-- 1. Project Management -->
        <mxCell id="pm" value="1. Project Management" style="rounded=1;whiteSpace=wrap;html=1;fillColor=#f8cecc;strokeColor=#b85450;" vertex="1" parent="1">
          <mxGeometry x="60" y="180" width="240" height="50" as="geometry" />
        </mxCell>
        <mxCell id="pm1" value="1.1 Scope & WBS" style="whiteSpace=wrap;html=1;" vertex="1" parent="1">
          <mxGeometry x="60" y="240" width="200" height="40" as="geometry" />
        </mxCell>
        <mxCell id="pm2" value="1.2 Schedule & Milestones" style="whiteSpace=wrap;html=1;" vertex="1" parent="1">
          <mxGeometry x="60" y="290" width="200" height="40" as="geometry" />
        </mxCell>
        <mxCell id="pm3" value="1.3 Risk & Quality Mgmt" style="whiteSpace=wrap;html=1;" vertex="1" parent="1">
          <mxGeometry x="60" y="340" width="200" height="40" as="geometry" />
        </mxCell>
        <mxCell id="pm4" value="1.4 Stakeholder Comms" style="whiteSpace=wrap;html=1;" vertex="1" parent="1">
          <mxGeometry x="60" y="390" width="200" height="40" as="geometry" />
        </mxCell>

        <!-- 2. Data & Artifacts -->
        <mxCell id="data" value="2. Data & Artifacts" style="rounded=1;whiteSpace=wrap;html=1;fillColor=#fff2cc;strokeColor=#d6b656;" vertex="1" parent="1">
          <mxGeometry x="330" y="180" width="240" height="50" as="geometry" />
        </mxCell>
        <mxCell id="data1" value="2.1 Collect plant data (CSV)" style="whiteSpace=wrap;html=1;" vertex="1" parent="1">
          <mxGeometry x="330" y="240" width="240" height="40" as="geometry" />
        </mxCell>
        <mxCell id="data2" value="2.2 Build maps (name/family/genus .pkl)" style="whiteSpace=wrap;html=1;" vertex="1" parent="1">
          <mxGeometry x="330" y="290" width="240" height="40" as="geometry" />
        </mxCell>
        <mxCell id="data3" value="2.3 Train & export model (.keras)" style="whiteSpace=wrap;html=1;" vertex="1" parent="1">
          <mxGeometry x="330" y="340" width="240" height="40" as="geometry" />
        </mxCell>
        <mxCell id="data4" value="2.4 Storage & versioning" style="whiteSpace=wrap;html=1;" vertex="1" parent="1">
          <mxGeometry x="330" y="390" width="240" height="40" as="geometry" />
        </mxCell>

        <!-- 3. API Backend -->
        <mxCell id="api" value="3. API Backend (FastAPI)" style="rounded=1;whiteSpace=wrap;html=1;fillColor=#d5e8d4;strokeColor=#82b366;" vertex="1" parent="1">
          <mxGeometry x="620" y="180" width="260" height="50" as="geometry" />
        </mxCell>
        <mxCell id="api1" value="3.1 Lifespan: load model & maps" style="whiteSpace=wrap;html=1;" vertex="1" parent="1">
          <mxGeometry x="620" y="240" width="260" height="40" as="geometry" />
        </mxCell>
        <mxCell id="api2" value="3.2 /predict_graftable endpoint" style="whiteSpace=wrap;html=1;" vertex="1" parent="1">
          <mxGeometry x="620" y="290" width="260" height="40" as="geometry" />
        </mxCell>
        <mxCell id="api3" value="3.3 /plants/add_metadata endpoint" style="whiteSpace=wrap;html=1;" vertex="1" parent="1">
          <mxGeometry x="620" y="340" width="260" height="40" as="geometry" />
        </mxCell>
        <mxCell id="api4" value="3.4 /health & root endpoints" style="whiteSpace=wrap;html=1;" vertex="1" parent="1">
          <mxGeometry x="620" y="390" width="260" height="40" as="geometry" />
        </mxCell>

        <!-- 4. Testing & QA -->
        <mxCell id="qa" value="4. Testing & QA" style="rounded=1;whiteSpace=wrap;html=1;fillColor=#e1d5e7;strokeColor=#9673a6;" vertex="1" parent="1">
          <mxGeometry x="920" y="180" width="220" height="50" as="geometry" />
        </mxCell>
        <mxCell id="qa1" value="4.1 Unit tests (pydantic, utils)" style="whiteSpace=wrap;html=1;" vertex="1" parent="1">
          <mxGeometry x="920" y="240" width="220" height="40" as="geometry" />
        </mxCell>
        <mxCell id="qa2" value="4.2 API tests (pytest/httpx)" style="whiteSpace=wrap;html=1;" vertex="1" parent="1">
          <mxGeometry x="920" y="290" width="220" height="40" as="geometry" />
        </mxCell>
        <mxCell id="qa3" value="4.3 Performance & load" style="whiteSpace=wrap;html=1;" vertex="1" parent="1">
          <mxGeometry x="920" y="340" width="220" height="40" as="geometry" />
        </mxCell>
        <mxCell id="qa4" value="4.4 Monitoring & logging" style="whiteSpace=wrap;html=1;" vertex="1" parent="1">
          <mxGeometry x="920" y="390" width="220" height="40" as="geometry" />
        </mxCell>

        <!-- 5. Deployment & DevOps -->
        <mxCell id="devops" value="5. Deployment & DevOps" style="rounded=1;whiteSpace=wrap;html=1;fillColor=#ffd966;strokeColor=#bf9000;" vertex="1" parent="1">
          <mxGeometry x="1180" y="180" width="260" height="50" as="geometry" />
        </mxCell>
        <mxCell id="devops1" value="5.1 Requirements & env" style="whiteSpace=wrap;html=1;" vertex="1" parent="1">
          <mxGeometry x="1180" y="240" width="260" height="40" as="geometry" />
        </mxCell>
        <mxCell id="devops2" value="5.2 Vercel/Render config" style="whiteSpace=wrap;html=1;" vertex="1" parent="1">
          <mxGeometry x="1180" y="290" width="260" height="40" as="geometry" />
        </mxCell>
        <mxCell id="devops3" value="5.3 Container/Server startup" style="whiteSpace=wrap;html=1;" vertex="1" parent="1">
          <mxGeometry x="1180" y="340" width="260" height="40" as="geometry" />
        </mxCell>
        <mxCell id="devops4" value="5.4 CD/Monitoring" style="whiteSpace=wrap;html=1;" vertex="1" parent="1">
          <mxGeometry x="1180" y="390" width="260" height="40" as="geometry" />
        </mxCell>
      </root>
    </mxGraphModel>
  </diagram>
</mxfile>
